<svg width="54" height="56" viewBox="0 0 54 56" fill="none" xmlns="http://www.w3.org/2000/svg">
                                <g style="mix-blend-mode:hard-light">
                                <path d="M17.3252 6.1509C4.27466 11.7844 -3.42165 24.9235 1.97119 37.3901C7.36403 49.8568 22.7241 54.4326 35.7746 48.799C48.8251 43.1655 58.5064 32.2553 50.6226 16.3887C45.2298 3.92204 30.3757 0.51737 17.3252 6.1509ZM31.7632 39.5259C25.7066 42.1403 14.1437 41.9686 11.0333 34.7782C7.9229 27.5879 14.774 16.8674 20.8306 14.253C26.8872 11.6385 33.2964 16.2535 36.4068 23.4438C39.5172 30.6342 37.8198 36.9114 31.7632 39.5259Z" fill="url(#paint0_linear_447_39073)"></path>
                                </g>
                                <g style="mix-blend-mode:hard-light" opacity="0.8">
                                <path d="M3.38154 35.9409C7.9822 49.819 22.482 58.3485 36.3772 53.7795C50.2725 49.2106 56.8226 33.7595 52.222 19.8813C47.6213 6.00313 33.1215 -2.52638 19.2263 2.0426C5.33105 6.61158 -1.21913 22.0627 3.38154 35.9409ZM41.8862 23.2799C44.0213 29.7206 38.4676 45.667 30.4534 48.3022C22.4391 50.9374 11.306 43.5847 11.2877 34.109C11.2695 24.6332 16.6242 21.1817 24.1986 18.6598C31.7731 16.1379 39.7511 16.8392 41.8862 23.2799Z" fill="url(#paint1_linear_447_39073)"></path>
                                </g>
                                <g style="mix-blend-mode:hard-light" opacity="0.5">
                                <path d="M48.1685 38.6067C54.7674 27.177 51.8197 12.2805 40.401 5.65099C28.9824 -0.978492 14.632 3.87493 8.03303 15.3047C1.43406 26.7345 4.38185 41.6309 15.8005 48.2604C27.2191 54.8899 41.5695 50.0365 48.1685 38.6067ZM16.5266 20.2359C19.5891 14.9315 33.6757 9.10888 40.2615 12.9325C46.8474 16.7562 48.5687 28.676 42.1892 34.3739C35.8098 40.0718 30.2691 38.5316 24.0236 34.9365C17.7781 31.3415 13.4641 25.5404 16.5266 20.2359Z" fill="url(#paint2_linear_447_39073)"></path>
                                </g>
                                <defs>
                                <linearGradient id="paint0_linear_447_39073" x1="-52.9597" y1="21.7289" x2="17.3645" y2="60.7466" gradientUnits="userSpaceOnUse">
                                <stop stop-color="#6F00FF"></stop>
                                <stop offset="1" stop-color="#49CCF9"></stop>
                                </linearGradient>
                                <linearGradient id="paint1_linear_447_39073" x1="60.8622" y1="6.00551" x2="0.131824" y2="26.1378" gradientUnits="userSpaceOnUse">
                                <stop stop-color="#FF02F0"></stop>
                                <stop offset="1" stop-color="#E922C5"></stop>
                                </linearGradient>
                                <linearGradient id="paint2_linear_447_39073" x1="-6.50906" y1="17.8033" x2="43.5072" y2="46.6803" gradientUnits="userSpaceOnUse">
                                <stop stop-color="#FF02F0"></stop>
                                <stop offset="1" stop-color="#EDE4C3"></stop>
                                </linearGradient>
                                </defs>
                            </svg>
